<svg width="204" height="135" viewBox="0 0 204 135" fill="none" xmlns="http://www.w3.org/2000/svg">
<path d="M38.1809 1.52266C53.8514 4.89636 66.0396 10.0002 77.128 17.6991C98.6635 32.751 110.943 52.5607 116.075 80.5883C118.549 94.1696 117.175 127.474 114.059 128.426C113.418 128.685 112.226 126.263 110.943 122.457C109.844 118.997 108.194 114.239 107.278 111.903C106.27 109.567 105.537 107.318 105.537 106.886C105.537 106.367 103.062 101.263 100.13 95.5537C94.2647 84.135 87.575 73.9274 80.9769 66.4015C71.9962 56.1074 56.3257 43.6507 52.935 44.0832C49.0862 44.6022 50.8273 47.5434 58.0668 52.8202C67.5974 59.6541 79.5107 71.5918 85.6506 80.4153C94.6313 93.3911 106.27 119.17 108.836 131.713L109.477 135L104.528 134.481C79.3274 132.059 49.8193 115.19 32.4993 93.218C22.6021 80.5883 13.8962 62.6818 8.39784 43.4776C3.35762 26.2631 0.241897 10.2597 0.516817 3.77184C0.608458 1.52271 0.97501 1.17666 3.81586 0.830642C5.55702 0.657632 7.11489 0.39809 7.29817 0.225079C8.03129 -0.466961 34.0571 0.571106 38.1809 1.52266Z" fill="#047B18"/>
<path d="M202.95 38.3132C202.675 44.8011 202.309 50.3374 202.125 50.5969C201.942 50.8564 201.484 53.5381 201.209 56.4793C200.018 67.6384 195.527 82.0848 190.12 92.2058C183.431 104.576 168.402 118.849 153.464 126.894C143.842 131.998 134.586 135.718 134.678 134.334C134.678 134.247 135.32 131.998 136.144 129.403C136.878 126.808 138.069 122.656 138.802 120.32C143.017 105.182 156.03 80.9602 164.461 72.3097C167.394 69.3685 168.31 65.5623 166.386 64.8702C164.186 64.0917 162.903 65.3893 155.297 76.2889C145.4 90.3027 135.045 112.189 133.212 123.088C132.57 127.327 130.463 128.105 129.546 124.559C129.18 123.261 129.18 115.995 129.455 108.296C130.004 94.628 130.829 89.9567 135.136 76.6349C137.336 69.801 145.217 55.8737 150.165 49.9914C159.513 39.0918 177.841 29.4032 192.411 27.6731C194.611 27.4136 196.535 27.1541 196.719 27.0676C196.81 26.9811 198.368 26.808 200.201 26.635L203.5 26.462L202.95 38.3132Z" fill="#047B18"/>
</svg>
