<svg width="374" height="195" viewBox="0 0 374 195" fill="none" xmlns="http://www.w3.org/2000/svg">
<path d="M123.181 1.52266C138.851 4.89636 151.04 10.0002 162.128 17.6991C183.663 32.751 195.943 52.5607 201.075 80.5883C203.549 94.1696 202.175 127.474 199.059 128.426C198.418 128.685 197.226 126.263 195.943 122.457C194.844 118.997 193.194 114.239 192.278 111.903C191.27 109.567 190.537 107.318 190.537 106.886C190.537 106.367 188.062 101.263 185.13 95.5537C179.265 84.135 172.575 73.9274 165.977 66.4015C156.996 56.1074 141.326 43.6507 137.935 44.0832C134.086 44.6022 135.827 47.5434 143.067 52.8202C152.597 59.6541 164.511 71.5918 170.651 80.4153C179.631 93.3911 191.27 119.17 193.836 131.713L194.477 135L189.528 134.481C164.327 132.059 134.819 115.19 117.499 93.218C107.602 80.5883 98.8962 62.6818 93.3978 43.4776C88.3576 26.2631 85.2419 10.2597 85.5168 3.77184C85.6085 1.52271 85.975 1.17666 88.8159 0.830642C90.557 0.657632 92.1149 0.39809 92.2982 0.225079C93.0313 -0.466961 119.057 0.571106 123.181 1.52266Z" fill="#047B18"/>
<path d="M287.95 38.3132C287.675 44.8011 287.309 50.3374 287.125 50.5969C286.942 50.8564 286.484 53.5381 286.209 56.4793C285.018 67.6384 280.527 82.0848 275.12 92.2058C268.431 104.576 253.402 118.849 238.464 126.894C228.842 131.998 219.586 135.718 219.678 134.334C219.678 134.247 220.32 131.998 221.144 129.403C221.878 126.808 223.069 122.656 223.802 120.32C228.017 105.182 241.03 80.9602 249.461 72.3097C252.394 69.3685 253.31 65.5623 251.386 64.8702C249.186 64.0917 247.903 65.3893 240.297 76.2889C230.4 90.3027 220.045 112.189 218.212 123.088C217.57 127.327 215.463 128.105 214.546 124.559C214.18 123.261 214.18 115.995 214.455 108.296C215.004 94.628 215.829 89.9567 220.136 76.6349C222.336 69.801 230.217 55.8737 235.165 49.9914C244.513 39.0918 262.841 29.4032 277.411 27.6731C279.611 27.4136 281.535 27.1541 281.719 27.0676C281.81 26.9811 283.368 26.808 285.201 26.635L288.5 26.462L287.95 38.3132Z" fill="#047B18"/>
<path d="M12.64 179.28C10.5867 179.28 8.74667 178.947 7.12 178.28C5.49333 177.613 4.18667 176.627 3.2 175.32C2.24 174.013 1.73333 172.44 1.68 170.6H8.96C9.06667 171.64 9.42667 172.44 10.04 173C10.6533 173.533 11.4533 173.8 12.44 173.8C13.4533 173.8 14.2533 173.573 14.84 173.12C15.4267 172.64 15.72 171.987 15.72 171.16C15.72 170.467 15.48 169.893 15 169.44C14.5467 168.987 13.9733 168.613 13.28 168.32C12.6133 168.027 11.6533 167.693 10.4 167.32C8.58667 166.76 7.10667 166.2 5.96 165.64C4.81333 165.08 3.82667 164.253 3 163.16C2.17333 162.067 1.76 160.64 1.76 158.88C1.76 156.267 2.70667 154.227 4.6 152.76C6.49333 151.267 8.96 150.52 12 150.52C15.0933 150.52 17.5867 151.267 19.48 152.76C21.3733 154.227 22.3867 156.28 22.52 158.92H15.12C15.0667 158.013 14.7333 157.307 14.12 156.8C13.5067 156.267 12.72 156 11.76 156C10.9333 156 10.2667 156.227 9.76 156.68C9.25333 157.107 9 157.733 9 158.56C9 159.467 9.42667 160.173 10.28 160.68C11.1333 161.187 12.4667 161.733 14.28 162.32C16.0933 162.933 17.56 163.52 18.68 164.08C19.8267 164.64 20.8133 165.453 21.64 166.52C22.4667 167.587 22.88 168.96 22.88 170.64C22.88 172.24 22.4667 173.693 21.64 175C20.84 176.307 19.6667 177.347 18.12 178.12C16.5733 178.893 14.7467 179.28 12.64 179.28ZM51.4094 150.92V179H44.5694V167.44H33.9294V179H27.0894V150.92H33.9294V161.92H44.5694V150.92H51.4094ZM73.8272 174.04H63.3472L61.6672 179H54.5072L64.6672 150.92H72.5872L82.7472 179H75.5072L73.8272 174.04ZM72.0672 168.76L68.5872 158.48L65.1472 168.76H72.0672ZM117.639 150.92V179H110.799V162.16L104.519 179H98.9994L92.6794 162.12V179H85.8394V150.92H93.9194L101.799 170.36L109.599 150.92H117.639ZM139.558 164.6C141.185 164.947 142.491 165.76 143.478 167.04C144.465 168.293 144.958 169.733 144.958 171.36C144.958 173.707 144.131 175.573 142.478 176.96C140.851 178.32 138.571 179 135.638 179H122.558V150.92H135.198C138.051 150.92 140.278 151.573 141.878 152.88C143.505 154.187 144.318 155.96 144.318 158.2C144.318 159.853 143.878 161.227 142.998 162.32C142.145 163.413 140.998 164.173 139.558 164.6ZM129.398 162.28H133.878C134.998 162.28 135.851 162.04 136.438 161.56C137.051 161.053 137.358 160.32 137.358 159.36C137.358 158.4 137.051 157.667 136.438 157.16C135.851 156.653 134.998 156.4 133.878 156.4H129.398V162.28ZM134.438 173.48C135.585 173.48 136.465 173.227 137.078 172.72C137.718 172.187 138.038 171.427 138.038 170.44C138.038 169.453 137.705 168.68 137.038 168.12C136.398 167.56 135.505 167.28 134.358 167.28H129.398V173.48H134.438ZM166.405 174.04H155.925L154.245 179H147.085L157.245 150.92H165.165L175.325 179H168.085L166.405 174.04ZM164.645 168.76L161.165 158.48L157.725 168.76H164.645ZM201.214 179L195.374 168.4H193.734V179H186.894V150.92H198.374C200.587 150.92 202.467 151.307 204.014 152.08C205.587 152.853 206.761 153.92 207.534 155.28C208.307 156.613 208.694 158.107 208.694 159.76C208.694 161.627 208.161 163.293 207.094 164.76C206.054 166.227 204.507 167.267 202.454 167.88L208.934 179H201.214ZM193.734 163.56H197.974C199.227 163.56 200.161 163.253 200.774 162.64C201.414 162.027 201.734 161.16 201.734 160.04C201.734 158.973 201.414 158.133 200.774 157.52C200.161 156.907 199.227 156.6 197.974 156.6H193.734V163.56ZM219.828 156.4V162.08H228.988V167.36H219.828V173.52H230.188V179H212.988V150.92H230.188V156.4H219.828ZM233.468 164.92C233.468 162.147 234.068 159.68 235.268 157.52C236.468 155.333 238.135 153.64 240.268 152.44C242.428 151.213 244.868 150.6 247.588 150.6C250.922 150.6 253.775 151.48 256.148 153.24C258.522 155 260.108 157.4 260.908 160.44H253.388C252.828 159.267 252.028 158.373 250.988 157.76C249.975 157.147 248.815 156.84 247.508 156.84C245.402 156.84 243.695 157.573 242.388 159.04C241.082 160.507 240.428 162.467 240.428 164.92C240.428 167.373 241.082 169.333 242.388 170.8C243.695 172.267 245.402 173 247.508 173C248.815 173 249.975 172.693 250.988 172.08C252.028 171.467 252.828 170.573 253.388 169.4H260.908C260.108 172.44 258.522 174.84 256.148 176.6C253.775 178.333 250.922 179.2 247.588 179.2C244.868 179.2 242.428 178.6 240.268 177.4C238.135 176.173 236.468 174.48 235.268 172.32C234.068 170.16 233.468 167.693 233.468 164.92ZM278.377 179.28C275.737 179.28 273.311 178.667 271.097 177.44C268.911 176.213 267.164 174.507 265.857 172.32C264.577 170.107 263.937 167.627 263.937 164.88C263.937 162.133 264.577 159.667 265.857 157.48C267.164 155.293 268.911 153.587 271.097 152.36C273.311 151.133 275.737 150.52 278.377 150.52C281.017 150.52 283.431 151.133 285.617 152.36C287.831 153.587 289.564 155.293 290.817 157.48C292.097 159.667 292.737 162.133 292.737 164.88C292.737 167.627 292.097 170.107 290.817 172.32C289.537 174.507 287.804 176.213 285.617 177.44C283.431 178.667 281.017 179.28 278.377 179.28ZM278.377 173.04C280.617 173.04 282.404 172.293 283.737 170.8C285.097 169.307 285.777 167.333 285.777 164.88C285.777 162.4 285.097 160.427 283.737 158.96C282.404 157.467 280.617 156.72 278.377 156.72C276.111 156.72 274.297 157.453 272.937 158.92C271.604 160.387 270.937 162.373 270.937 164.88C270.937 167.36 271.604 169.347 272.937 170.84C274.297 172.307 276.111 173.04 278.377 173.04ZM310.863 179L305.023 168.4H303.383V179H296.543V150.92H308.023C310.236 150.92 312.116 151.307 313.663 152.08C315.236 152.853 316.409 153.92 317.183 155.28C317.956 156.613 318.343 158.107 318.343 159.76C318.343 161.627 317.809 163.293 316.743 164.76C315.703 166.227 314.156 167.267 312.103 167.88L318.583 179H310.863ZM303.383 163.56H307.623C308.876 163.56 309.809 163.253 310.423 162.64C311.063 162.027 311.383 161.16 311.383 160.04C311.383 158.973 311.063 158.133 310.423 157.52C309.809 156.907 308.876 156.6 307.623 156.6H303.383V163.56ZM333.156 150.92C336.116 150.92 338.703 151.507 340.916 152.68C343.13 153.853 344.836 155.507 346.036 157.64C347.263 159.747 347.876 162.187 347.876 164.96C347.876 167.707 347.263 170.147 346.036 172.28C344.836 174.413 343.116 176.067 340.876 177.24C338.663 178.413 336.09 179 333.156 179H322.636V150.92H333.156ZM332.716 173.08C335.303 173.08 337.316 172.373 338.756 170.96C340.196 169.547 340.916 167.547 340.916 164.96C340.916 162.373 340.196 160.36 338.756 158.92C337.316 157.48 335.303 156.76 332.716 156.76H329.476V173.08H332.716ZM361.859 179.28C359.805 179.28 357.965 178.947 356.339 178.28C354.712 177.613 353.405 176.627 352.419 175.32C351.459 174.013 350.952 172.44 350.899 170.6H358.179C358.285 171.64 358.645 172.44 359.259 173C359.872 173.533 360.672 173.8 361.659 173.8C362.672 173.8 363.472 173.573 364.059 173.12C364.645 172.64 364.939 171.987 364.939 171.16C364.939 170.467 364.699 169.893 364.219 169.44C363.765 168.987 363.192 168.613 362.499 168.32C361.832 168.027 360.872 167.693 359.619 167.32C357.805 166.76 356.325 166.2 355.179 165.64C354.032 165.08 353.045 164.253 352.219 163.16C351.392 162.067 350.979 160.64 350.979 158.88C350.979 156.267 351.925 154.227 353.819 152.76C355.712 151.267 358.179 150.52 361.219 150.52C364.312 150.52 366.805 151.267 368.699 152.76C370.592 154.227 371.605 156.28 371.739 158.92H364.339C364.285 158.013 363.952 157.307 363.339 156.8C362.725 156.267 361.939 156 360.979 156C360.152 156 359.485 156.227 358.979 156.68C358.472 157.107 358.219 157.733 358.219 158.56C358.219 159.467 358.645 160.173 359.499 160.68C360.352 161.187 361.685 161.733 363.499 162.32C365.312 162.933 366.779 163.52 367.899 164.08C369.045 164.64 370.032 165.453 370.859 166.52C371.685 167.587 372.099 168.96 372.099 170.64C372.099 172.24 371.685 173.693 370.859 175C370.059 176.307 368.885 177.347 367.339 178.12C365.792 178.893 363.965 179.28 361.859 179.28Z" fill="#047B18"/>
</svg>
